<svg width="36" height="36" viewBox="0 0 36 36" fill="none" xmlns="http://www.w3.org/2000/svg">
<path d="M8 4.50001C11.6907 4.49485 15.2527 5.83063 18 8.25V31.5C15.2527 29.0806 11.6907 27.7449 8 27.75C5.65698 27.75 4.48548 27.75 3.96789 27.4188C3.65715 27.2199 3.53019 27.0929 3.33129 26.7821C3 26.2646 3 25.3411 3 23.4943V9.60483C3 7.46315 3 6.39231 3.82311 5.52429C4.64622 4.65627 5.48885 4.61148 7.17408 4.5219C7.4475 4.50736 7.72287 4.50001 8 4.50001Z" stroke="#818CF8" stroke-width="2.25" stroke-linecap="round" stroke-linejoin="round"/>
<path d="M28.0001 4.50001C24.3093 4.49485 20.7473 5.83063 18 8.25V31.5C20.7473 29.0806 24.3093 27.7449 28.0001 27.75C30.3431 27.75 31.5146 27.75 32.0321 27.4188C32.3429 27.2199 32.4698 27.0929 32.6687 26.7821C33 26.2646 33 25.3411 33 23.4943V9.60483C33 7.46315 33 6.39231 32.1769 5.52429C31.3537 4.65627 30.5112 4.61148 28.826 4.5219C28.5525 4.50736 28.2771 4.50001 28.0001 4.50001Z" stroke="#818CF8" stroke-width="2.25" stroke-linecap="round" stroke-linejoin="round"/>
</svg>
