<svg width="36" height="36" viewBox="0 0 36 36" fill="none" xmlns="http://www.w3.org/2000/svg">
<path d="M18 25.5C15.4896 25.5 13.3046 27.3975 12.1765 30.1968C11.6377 31.5338 12.4108 33 13.4382 33H22.5618C23.5891 33 24.3623 31.5338 23.8235 30.1968C22.6955 27.3975 20.5104 25.5 18 25.5Z" stroke="#818CF8" stroke-width="2.25" stroke-linecap="round"/>
<path d="M27.75 7.5H29.5533C31.3547 7.5 32.2552 7.5 32.7252 8.06604C33.195 8.63208 32.9997 9.48169 32.609 11.1809L32.0227 13.7296C31.1413 17.5629 27.9164 20.4132 24 21" stroke="#818CF8" stroke-width="2.25" stroke-linecap="round" stroke-linejoin="round"/>
<path d="M8.25 7.5H6.44669C4.64538 7.5 3.74474 7.5 3.27486 8.06604C2.80499 8.63208 3.00036 9.48169 3.39113 11.1809L3.97722 13.7296C4.85871 17.5629 8.08368 20.4132 12 21" stroke="#818CF8" stroke-width="2.25" stroke-linecap="round" stroke-linejoin="round"/>
<path d="M18 25.5C22.5312 25.5 26.3475 18.5069 27.4946 8.98634C27.8118 6.35337 27.9705 5.0369 27.1302 4.01844C26.2901 3 24.9335 3 22.2201 3H13.7799C11.0666 3 9.71 3 8.86976 4.01844C8.02952 5.0369 8.18813 6.35337 8.50538 8.98634C9.6525 18.5069 13.4688 25.5 18 25.5Z" stroke="#818CF8" stroke-width="2.25" stroke-linecap="round"/>
</svg>
