<svg width="36" height="36" viewBox="0 0 36 36" fill="none" xmlns="http://www.w3.org/2000/svg">
<path d="M33 13.5V22.5" stroke="#818CF8" stroke-width="1.5" stroke-linecap="round" stroke-linejoin="round"/>
<path d="M27 18V22.6004C27 24.2 27 24.9997 26.6055 25.6606L26.5974 25.6739C26.1991 26.3327 25.4764 26.7357 24.0309 27.5416C21.0967 29.1777 19.6296 29.9958 18.0163 30H17.9837C16.3704 29.9958 14.9033 29.1777 11.9691 27.5416C10.5236 26.7357 9.80087 26.3327 9.4026 25.6739L9.39458 25.6606C9 24.9997 9 24.2 9 22.6004V18" stroke="#818CF8" stroke-width="1.5" stroke-linecap="round" stroke-linejoin="round"/>
<path d="M12.7821 7.83378L6.60967 10.8111C4.20322 11.9719 3 12.5522 3 13.4869C3 14.4215 4.20322 15.0019 6.60967 16.1626L12.897 19.1953C15.3912 20.3985 16.6383 21 17.9724 21C19.3066 21 20.5538 20.3985 23.048 19.1953L29.4579 16.1034C31.8211 14.9636 33.0027 14.3936 33 13.456C32.9973 12.5183 31.8219 11.9598 29.471 10.8429C27.3269 9.8241 25.3027 8.88774 23.1495 7.86276C20.536 6.61864 19.2292 5.99658 17.9029 6.00001C16.5768 6.00343 15.3119 6.61356 12.7821 7.83378Z" stroke="#818CF8" stroke-width="1.5" stroke-linecap="round" stroke-linejoin="round"/>
</svg>
