<svg width="36" height="36" viewBox="0 0 36 36" fill="none" xmlns="http://www.w3.org/2000/svg">
<path d="M28.0632 5.24301C25.2247 3.83073 21.7514 3 18 3C14.2486 3 10.7753 3.83073 7.93674 5.24301C6.54477 5.93559 5.84878 6.28188 5.1744 7.37067C4.5 8.45948 4.5 9.51372 4.5 11.6222V16.8556C4.5 25.3807 11.3135 30.1206 15.2595 32.1507C16.3601 32.7169 16.9103 33 18 33C19.0897 33 19.6399 32.7169 20.7403 32.1507C24.6864 30.1206 31.5 25.3807 31.5 16.8556V11.6222C31.5 9.51373 31.5 8.45949 30.8256 7.37067C30.1512 6.28187 29.4552 5.93559 28.0632 5.24301Z" stroke="#818CF8" stroke-width="2.25" stroke-linecap="round" stroke-linejoin="round"/>
</svg>
