<svg width="25" height="25" viewBox="0 0 25 25" fill="none" xmlns="http://www.w3.org/2000/svg">
<path d="M16.918 12.3438C17.0446 12.6858 17.3142 12.9554 17.6562 13.082L22.8389 15L17.6562 16.918C17.357 17.0287 17.1128 17.2488 16.9717 17.5312L16.918 17.6562L15 22.8389L13.082 17.6562C12.9713 17.357 12.7512 17.1128 12.4688 16.9717L12.3438 16.918L7.16016 15L12.3438 13.082C12.6858 12.9554 12.9554 12.6858 13.082 12.3438L15 7.16016L16.918 12.3438Z" stroke="#3730A3" stroke-width="1.5"/>
<path d="M20.5674 3.69434C20.694 4.03636 20.9636 4.30601 21.3057 4.43262L22.8389 5L21.3057 5.56738C21.0064 5.67816 20.7622 5.89823 20.6211 6.18066L20.5674 6.30566L20 7.83887L19.4326 6.30566C19.306 5.96364 19.0364 5.69399 18.6943 5.56738L17.1602 5L18.6943 4.43262C19.0364 4.30601 19.306 4.03636 19.4326 3.69434L20 2.16016L20.5674 3.69434Z" stroke="#3730A3" stroke-width="1.5"/>
<path d="M5.56738 18.6943C5.69399 19.0364 5.96364 19.306 6.30566 19.4326L7.83887 20L6.30566 20.5674C6.00642 20.6782 5.76221 20.8982 5.62109 21.1807L5.56738 21.3057L5 22.8389L4.43262 21.3057C4.30601 20.9636 4.03636 20.694 3.69434 20.5674L2.16016 20L3.69434 19.4326C4.03636 19.306 4.30601 19.0364 4.43262 18.6943L5 17.1602L5.56738 18.6943Z" stroke="#3730A3" stroke-width="1.5"/>
</svg>
