<svg width="36" height="36" viewBox="0 0 36 36" fill="none" xmlns="http://www.w3.org/2000/svg">
<path d="M19.5 10.5C19.5 13.8137 16.8137 16.5 13.5 16.5C10.1863 16.5 7.5 13.8137 7.5 10.5C7.5 7.18629 10.1863 4.5 13.5 4.5C16.8137 4.5 19.5 7.18629 19.5 10.5Z" stroke="#818CF8" stroke-width="2.25"/>
<path d="M22.5 16.5C25.8137 16.5 28.5 13.8137 28.5 10.5C28.5 7.18629 25.8137 4.5 22.5 4.5" stroke="#818CF8" stroke-width="2.25" stroke-linecap="round" stroke-linejoin="round"/>
<path d="M16.5 21H10.5C6.35787 21 3 24.3579 3 28.5C3 30.1569 4.34314 31.5 6 31.5H21C22.6569 31.5 24 30.1569 24 28.5C24 24.3579 20.6421 21 16.5 21Z" stroke="#818CF8" stroke-width="2.25" stroke-linejoin="round"/>
<path d="M25.5 21C29.6421 21 33 24.3579 33 28.5C33 30.1569 31.6569 31.5 30 31.5H27.75" stroke="#818CF8" stroke-width="2.25" stroke-linecap="round" stroke-linejoin="round"/>
</svg>
