<svg width="106" height="28" viewBox="0 0 106 28" fill="none" xmlns="http://www.w3.org/2000/svg">
<rect width="28" height="28" rx="3.36" fill="#EEF2FF"/>
<path d="M13.496 19.6728C12.1632 19.6728 11.032 19.4208 10.1024 18.9168C9.18403 18.4128 8.48403 17.7072 8.00243 16.8C7.52083 15.8928 7.28003 14.8288 7.28003 13.608C7.28003 12.6672 7.42003 11.8216 7.70003 11.0712C7.99123 10.3096 8.40563 9.6656 8.94323 9.1392C9.49203 8.6016 10.1528 8.1872 10.9256 7.896C11.7096 7.6048 12.5944 7.4592 13.58 7.4592C14.1848 7.4592 14.7896 7.5264 15.3944 7.6608C15.9992 7.7952 16.5816 8.0192 17.1416 8.3328C17.3768 8.4672 17.5336 8.6408 17.612 8.8536C17.7016 9.0552 17.724 9.2736 17.6792 9.5088C17.6456 9.7328 17.556 9.9344 17.4104 10.1136C17.276 10.2816 17.0968 10.3936 16.8728 10.4496C16.66 10.4944 16.4136 10.4496 16.1336 10.3152C15.764 10.1136 15.372 9.968 14.9576 9.8784C14.5432 9.7776 14.0896 9.7272 13.5968 9.7272C12.8016 9.7272 12.1352 9.8784 11.5976 10.1808C11.06 10.472 10.6568 10.9088 10.388 11.4912C10.1304 12.0624 10.0016 12.768 10.0016 13.608C10.0016 14.8736 10.304 15.8312 10.9088 16.4808C11.5248 17.1304 12.432 17.4552 13.6304 17.4552C14.0336 17.4552 14.448 17.416 14.8736 17.3376C15.2992 17.2592 15.7192 17.1472 16.1336 17.0016L15.6464 18.06V14.8344H14.1344C13.7984 14.8344 13.5408 14.7504 13.3616 14.5824C13.1824 14.4144 13.0928 14.1848 13.0928 13.8936C13.0928 13.5912 13.1824 13.3616 13.3616 13.2048C13.5408 13.0368 13.7984 12.9528 14.1344 12.9528H16.772C17.108 12.9528 17.36 13.0424 17.528 13.2216C17.7072 13.4008 17.7968 13.6584 17.7968 13.9944V17.892C17.7968 18.1832 17.7408 18.4296 17.6288 18.6312C17.5168 18.8328 17.3264 18.9784 17.0576 19.068C16.5536 19.2472 15.988 19.3928 15.3608 19.5048C14.7336 19.6168 14.112 19.6728 13.496 19.6728Z" fill="#3730A3"/>
<path d="M19.768 12.432L20.4955 13.692H19.0406L19.768 12.432Z" fill="#F97316"/>
<path d="M20.328 15.344C20.328 15.6533 20.0773 15.904 19.768 15.904C19.4587 15.904 19.208 15.6533 19.208 15.344C19.208 15.0347 19.4587 14.784 19.768 14.784C20.0773 14.784 20.328 15.0347 20.328 15.344Z" fill="#818CF8"/>
<path d="M20.328 17.136C20.328 17.4453 20.0773 17.696 19.768 17.696C19.4587 17.696 19.208 17.4453 19.208 17.136C19.208 16.8267 19.4587 16.576 19.768 16.576C20.0773 16.576 20.328 16.8267 20.328 17.136Z" fill="#818CF8"/>
<path d="M20.328 18.928C20.328 19.2373 20.0773 19.488 19.768 19.488C19.4587 19.488 19.208 19.2373 19.208 18.928C19.208 18.6187 19.4587 18.368 19.768 18.368C20.0773 18.368 20.328 18.6187 20.328 18.928Z" fill="#818CF8"/>
<path d="M42.8 21.192C41.9467 21.192 41.1573 21.0373 40.432 20.728C39.7067 20.4187 39.072 19.9867 38.528 19.432C37.984 18.8773 37.5573 18.2267 37.248 17.48C36.9493 16.7333 36.8 15.9173 36.8 15.032C36.8 14.1467 36.944 13.3307 37.232 12.584C37.5307 11.8267 37.9467 11.176 38.48 10.632C39.024 10.0773 39.6587 9.65067 40.384 9.352C41.1093 9.04267 41.8987 8.888 42.752 8.888C43.6053 8.888 44.368 9.032 45.04 9.32C45.7227 9.608 46.2987 9.992 46.768 10.472C47.2373 10.9413 47.5733 11.4587 47.776 12.024L45.84 12.952C45.616 12.3333 45.2373 11.832 44.704 11.448C44.1707 11.064 43.52 10.872 42.752 10.872C42.0053 10.872 41.344 11.048 40.768 11.4C40.2027 11.752 39.76 12.2373 39.44 12.856C39.1307 13.4747 38.976 14.2 38.976 15.032C38.976 15.864 39.136 16.5947 39.456 17.224C39.7867 17.8427 40.24 18.328 40.816 18.68C41.392 19.032 42.0533 19.208 42.8 19.208C43.408 19.208 43.968 19.0907 44.48 18.856C44.992 18.6107 45.4027 18.2693 45.712 17.832C46.0213 17.384 46.176 16.856 46.176 16.248V15.336L47.168 16.2H42.752V14.36H48.352V15.56C48.352 16.4773 48.1973 17.288 47.888 17.992C47.5787 18.696 47.1573 19.288 46.624 19.768C46.1013 20.2373 45.5093 20.5947 44.848 20.84C44.1867 21.0747 43.504 21.192 42.8 21.192ZM50.0739 21V9.08H52.2499V21H50.0739ZM54.5426 21V9.08H58.9746C59.7853 9.08 60.5 9.22933 61.1186 9.528C61.748 9.816 62.2386 10.2427 62.5906 10.808C62.9426 11.3627 63.1186 12.04 63.1186 12.84C63.1186 13.6613 62.9213 14.36 62.5266 14.936C62.1426 15.512 61.62 15.9387 60.9586 16.216L63.6946 21H61.2306L58.3026 15.768L59.7106 16.6H56.7186V21H54.5426ZM56.7186 14.68H59.0066C59.4013 14.68 59.7426 14.6053 60.0306 14.456C60.3186 14.296 60.5426 14.0773 60.7026 13.8C60.8626 13.5227 60.9426 13.2027 60.9426 12.84C60.9426 12.4667 60.8626 12.1467 60.7026 11.88C60.5426 11.6027 60.3186 11.3893 60.0306 11.24C59.7426 11.08 59.4013 11 59.0066 11H56.7186V14.68ZM65.1208 21V9.08H73.0408V11H67.2968V14.056H72.7208V15.976H67.2968V19.08H73.0408V21H65.1208ZM73.6604 21L77.7724 9.08H80.5884L84.7004 21H82.3324L81.4844 18.44H76.8764L76.0124 21H73.6604ZM77.5004 16.52H80.8604L78.8764 10.584H79.4844L77.5004 16.52ZM86.027 21V9.08H90.475C91.2857 9.08 92.0003 9.22933 92.619 9.528C93.2483 9.816 93.739 10.2427 94.091 10.808C94.443 11.3627 94.619 12.04 94.619 12.84C94.619 13.6293 94.4377 14.3067 94.075 14.872C93.723 15.4267 93.2377 15.8533 92.619 16.152C92.0003 16.4507 91.2857 16.6 90.475 16.6H88.203V21H86.027ZM88.203 14.68H90.507C90.9017 14.68 91.243 14.6053 91.531 14.456C91.819 14.296 92.043 14.0773 92.203 13.8C92.363 13.5227 92.443 13.2027 92.443 12.84C92.443 12.4667 92.363 12.1467 92.203 11.88C92.043 11.6027 91.819 11.3893 91.531 11.24C91.243 11.08 90.9017 11 90.507 11H88.203V14.68ZM96.402 21V9.08H100.85C101.661 9.08 102.375 9.22933 102.994 9.528C103.623 9.816 104.114 10.2427 104.466 10.808C104.818 11.3627 104.994 12.04 104.994 12.84C104.994 13.6293 104.813 14.3067 104.45 14.872C104.098 15.4267 103.613 15.8533 102.994 16.152C102.375 16.4507 101.661 16.6 100.85 16.6H98.578V21H96.402ZM98.578 14.68H100.882C101.277 14.68 101.618 14.6053 101.906 14.456C102.194 14.296 102.418 14.0773 102.578 13.8C102.738 13.5227 102.818 13.2027 102.818 12.84C102.818 12.4667 102.738 12.1467 102.578 11.88C102.418 11.6027 102.194 11.3893 101.906 11.24C101.618 11.08 101.277 11 100.882 11H98.578V14.68Z" fill="white"/>
</svg>
